<?xml version="1.0" ?><svg id="Apple" viewBox="0 0 512 512" xmlns="http://www.w3.org/2000/svg"><defs><style>.cls-1{fill:#3b579d;}</style></defs><title/><path class="cls-1" d="M459.44,23.47H52.56A29.15,29.15,0,0,0,23.49,52.54V459.42a29.15,29.15,0,0,0,29.07,29.07H271.38V308.67H210.72V238.25h60.66V186c0-41.17,9.51-64.72,30.06-79.9,17.61-13,40.56-13.83,54.57-13.4,15,.46,60.13,3,60.13,3v63.77l-41.85-.4s-17.46-.61-24,9.34c-5.58,8.54-5.69,23.16-5.69,23.16v46.31h68.65l-7.72,70.82H344.23V488.49H459.44a29.15,29.15,0,0,0,29.07-29.07V52.54A29.15,29.15,0,0,0,459.44,23.47Z"/></svg>